<svg width="500" height="219" viewBox="0 0 500 219" fill="none" xmlns="http://www.w3.org/2000/svg">
<path d="M6.21094 45.5L2.57812 36.0078H2.51953C2.58789 36.7598 2.62207 37.6533 2.62207 38.6885V45.5H1.47217V34.792H3.34717L6.73828 43.625H6.79688L10.2173 34.792H12.0776V45.5H10.8325V38.6006C10.8325 37.8096 10.8667 36.9502 10.9351 36.0225H10.8765L7.21436 45.5H6.21094ZM18.73 45.6465C17.5435 45.6465 16.606 45.2852 15.9175 44.5625C15.2339 43.8398 14.8921 42.8364 14.8921 41.5522C14.8921 40.2583 15.2095 39.2305 15.8442 38.4688C16.4839 37.707 17.3408 37.3262 18.415 37.3262C19.4209 37.3262 20.2168 37.6582 20.8027 38.3223C21.3887 38.9814 21.6816 39.853 21.6816 40.937V41.7061H16.1519C16.1763 42.6484 16.4131 43.3638 16.8623 43.8521C17.3164 44.3403 17.9536 44.5845 18.7739 44.5845C19.6382 44.5845 20.4927 44.4038 21.3374 44.0425V45.1265C20.9077 45.312 20.5 45.4438 20.1143 45.522C19.7334 45.605 19.272 45.6465 18.73 45.6465ZM18.4004 38.3442C17.7559 38.3442 17.2407 38.5542 16.855 38.9741C16.4741 39.394 16.2495 39.9751 16.1812 40.7173H20.3779C20.3779 39.9507 20.207 39.3647 19.8652 38.9595C19.5234 38.5493 19.0352 38.3442 18.4004 38.3442ZM29.4399 43.3101C29.4399 44.0571 29.1616 44.6333 28.605 45.0386C28.0483 45.4438 27.2671 45.6465 26.2612 45.6465C25.1968 45.6465 24.3667 45.478 23.771 45.1411V44.0132C24.1567 44.2085 24.5693 44.3623 25.0088 44.4746C25.4531 44.5869 25.8804 44.6431 26.2905 44.6431C26.9253 44.6431 27.4136 44.543 27.7554 44.3428C28.0972 44.1377 28.2681 43.8276 28.2681 43.4126C28.2681 43.1001 28.1313 42.834 27.8579 42.6143C27.5894 42.3896 27.062 42.126 26.2759 41.8232C25.5288 41.5449 24.9966 41.3032 24.6792 41.0981C24.3667 40.8882 24.1323 40.6514 23.9761 40.3877C23.8247 40.124 23.749 39.8091 23.749 39.4429C23.749 38.7886 24.0151 38.2734 24.5474 37.8975C25.0796 37.5166 25.8096 37.3262 26.7373 37.3262C27.6016 37.3262 28.4463 37.502 29.2715 37.8535L28.8394 38.8423C28.0337 38.5103 27.3037 38.3442 26.6494 38.3442C26.0732 38.3442 25.6387 38.4346 25.3457 38.6152C25.0527 38.7959 24.9062 39.0449 24.9062 39.3623C24.9062 39.5771 24.96 39.7603 25.0674 39.9116C25.1797 40.063 25.3579 40.207 25.6021 40.3438C25.8462 40.4805 26.3149 40.6782 27.0083 40.937C27.9604 41.2837 28.6025 41.6328 28.9346 41.9844C29.2715 42.3359 29.4399 42.7778 29.4399 43.3101ZM37.103 43.3101C37.103 44.0571 36.8247 44.6333 36.2681 45.0386C35.7114 45.4438 34.9302 45.6465 33.9243 45.6465C32.8599 45.6465 32.0298 45.478 31.4341 45.1411V44.0132C31.8198 44.2085 32.2324 44.3623 32.6719 44.4746C33.1162 44.5869 33.5435 44.6431 33.9536 44.6431C34.5884 44.6431 35.0767 44.543 35.4185 44.3428C35.7603 44.1377 35.9312 43.8276 35.9312 43.4126C35.9312 43.1001 35.7944 42.834 35.521 42.6143C35.2524 42.3896 34.7251 42.126 33.939 41.8232C33.1919 41.5449 32.6597 41.3032 32.3423 41.0981C32.0298 40.8882 31.7954 40.6514 31.6392 40.3877C31.4878 40.124 31.4121 39.8091 31.4121 39.4429C31.4121 38.7886 31.6782 38.2734 32.2104 37.8975C32.7427 37.5166 33.4727 37.3262 34.4004 37.3262C35.2646 37.3262 36.1094 37.502 36.9346 37.8535L36.5024 38.8423C35.6968 38.5103 34.9668 38.3442 34.3125 38.3442C33.7363 38.3442 33.3018 38.4346 33.0088 38.6152C32.7158 38.7959 32.5693 39.0449 32.5693 39.3623C32.5693 39.5771 32.623 39.7603 32.7305 39.9116C32.8428 40.063 33.021 40.207 33.2651 40.3438C33.5093 40.4805 33.978 40.6782 34.6714 40.937C35.6235 41.2837 36.2656 41.6328 36.5977 41.9844C36.9346 42.3359 37.103 42.7778 37.103 43.3101ZM44.5244 45.5L44.2827 44.3574H44.2241C43.8237 44.8604 43.4233 45.2021 43.0229 45.3828C42.6274 45.5586 42.1318 45.6465 41.5361 45.6465C40.7402 45.6465 40.1152 45.4414 39.6611 45.0312C39.2119 44.6211 38.9873 44.0376 38.9873 43.2808C38.9873 41.6597 40.2837 40.8101 42.8765 40.7319L44.2388 40.688V40.1899C44.2388 39.5601 44.1021 39.0962 43.8286 38.7983C43.5601 38.4956 43.1279 38.3442 42.5322 38.3442C41.8633 38.3442 41.1064 38.5493 40.2617 38.9595L39.8882 38.0293C40.2837 37.8145 40.7158 37.646 41.1846 37.5239C41.6582 37.4019 42.1318 37.3408 42.6055 37.3408C43.5625 37.3408 44.2705 37.5532 44.7295 37.978C45.1934 38.4028 45.4253 39.084 45.4253 40.0215V45.5H44.5244ZM41.7778 44.6431C42.5347 44.6431 43.1279 44.4355 43.5576 44.0205C43.9922 43.6055 44.2095 43.0244 44.2095 42.2773V41.5522L42.9937 41.6035C42.0269 41.6377 41.3286 41.7891 40.8989 42.0576C40.4741 42.3213 40.2617 42.7339 40.2617 43.2954C40.2617 43.7349 40.3936 44.0693 40.6572 44.2988C40.9258 44.5283 41.2993 44.6431 41.7778 44.6431ZM55.0073 37.4727V38.2417L53.5205 38.4175C53.6572 38.5884 53.7793 38.813 53.8867 39.0913C53.9941 39.3647 54.0479 39.6748 54.0479 40.0215C54.0479 40.8076 53.7793 41.4351 53.2422 41.9038C52.7051 42.3726 51.9678 42.6069 51.0303 42.6069C50.791 42.6069 50.5664 42.5874 50.3564 42.5483C49.8389 42.8218 49.5801 43.166 49.5801 43.5811C49.5801 43.8008 49.6704 43.9644 49.8511 44.0718C50.0317 44.1743 50.3418 44.2256 50.7812 44.2256H52.2021C53.0713 44.2256 53.7378 44.4087 54.2017 44.7749C54.6704 45.1411 54.9048 45.6733 54.9048 46.3716C54.9048 47.2603 54.5483 47.9365 53.8354 48.4004C53.1226 48.8691 52.0825 49.1035 50.7153 49.1035C49.6655 49.1035 48.855 48.9082 48.2837 48.5176C47.7173 48.127 47.4341 47.5752 47.4341 46.8623C47.4341 46.374 47.5903 45.9517 47.9028 45.5952C48.2153 45.2388 48.6548 44.9971 49.2212 44.8701C49.0161 44.7773 48.8428 44.6333 48.7012 44.438C48.5645 44.2427 48.4961 44.0156 48.4961 43.7568C48.4961 43.4639 48.5742 43.2075 48.7305 42.9878C48.8867 42.7681 49.1333 42.5557 49.4702 42.3506C49.0552 42.1797 48.7158 41.8892 48.4521 41.479C48.1934 41.0688 48.064 40.6001 48.064 40.0728C48.064 39.1938 48.3276 38.5176 48.855 38.0439C49.3823 37.5654 50.1294 37.3262 51.0962 37.3262C51.5161 37.3262 51.8945 37.375 52.2314 37.4727H55.0073ZM48.606 46.8477C48.606 47.2822 48.7891 47.6118 49.1553 47.8364C49.5215 48.061 50.0464 48.1733 50.73 48.1733C51.7505 48.1733 52.5049 48.0195 52.9932 47.7119C53.4863 47.4092 53.7329 46.9966 53.7329 46.4741C53.7329 46.0396 53.5986 45.7368 53.3301 45.5659C53.0615 45.3999 52.5562 45.3169 51.814 45.3169H50.3564C49.8047 45.3169 49.375 45.4487 49.0674 45.7124C48.7598 45.9761 48.606 46.3545 48.606 46.8477ZM49.2651 40.0435C49.2651 40.605 49.4238 41.0298 49.7412 41.3179C50.0586 41.606 50.5005 41.75 51.0669 41.75C52.2534 41.75 52.8467 41.1738 52.8467 40.0215C52.8467 38.8154 52.2461 38.2124 51.0449 38.2124C50.4736 38.2124 50.0342 38.3662 49.7266 38.6738C49.4189 38.9814 49.2651 39.438 49.2651 40.0435ZM60.5464 45.6465C59.3599 45.6465 58.4224 45.2852 57.7339 44.5625C57.0503 43.8398 56.7085 42.8364 56.7085 41.5522C56.7085 40.2583 57.0259 39.2305 57.6606 38.4688C58.3003 37.707 59.1572 37.3262 60.2314 37.3262C61.2373 37.3262 62.0332 37.6582 62.6191 38.3223C63.2051 38.9814 63.498 39.853 63.498 40.937V41.7061H57.9683C57.9927 42.6484 58.2295 43.3638 58.6787 43.8521C59.1328 44.3403 59.77 44.5845 60.5903 44.5845C61.4546 44.5845 62.3091 44.4038 63.1538 44.0425V45.1265C62.7241 45.312 62.3164 45.4438 61.9307 45.522C61.5498 45.605 61.0884 45.6465 60.5464 45.6465ZM60.2168 38.3442C59.5723 38.3442 59.0571 38.5542 58.6714 38.9741C58.2905 39.394 58.0659 39.9751 57.9976 40.7173H62.1943C62.1943 39.9507 62.0234 39.3647 61.6816 38.9595C61.3398 38.5493 60.8516 38.3442 60.2168 38.3442Z" fill="white"/>
<rect x="1" y="216" width="450" height="2" fill="white"/>
<g clip-path="url(#clip0)">
<rect x="281" y="150.5" width="170" height="50" rx="25" fill="#C71222"/>
<path d="M333.057 168.751C331.88 168.751 330.95 169.145 330.267 169.931C329.588 170.712 329.249 171.784 329.249 173.146C329.249 174.547 329.576 175.631 330.23 176.398C330.889 177.16 331.827 177.541 333.042 177.541C333.79 177.541 334.642 177.406 335.599 177.138V178.229C334.856 178.507 333.941 178.646 332.852 178.646C331.275 178.646 330.057 178.168 329.197 177.211C328.343 176.254 327.916 174.894 327.916 173.131C327.916 172.028 328.121 171.061 328.531 170.231C328.946 169.401 329.542 168.761 330.318 168.312C331.099 167.863 332.017 167.638 333.072 167.638C334.195 167.638 335.176 167.843 336.016 168.253L335.489 169.323C334.678 168.942 333.868 168.751 333.057 168.751ZM344.868 174.479C344.868 175.788 344.539 176.811 343.879 177.548C343.22 178.28 342.31 178.646 341.147 178.646C340.43 178.646 339.792 178.478 339.236 178.141C338.679 177.804 338.25 177.321 337.947 176.691C337.644 176.061 337.493 175.324 337.493 174.479C337.493 173.17 337.82 172.152 338.474 171.425C339.128 170.692 340.037 170.326 341.199 170.326C342.322 170.326 343.213 170.7 343.872 171.447C344.536 172.194 344.868 173.205 344.868 174.479ZM338.752 174.479C338.752 175.504 338.958 176.286 339.368 176.823C339.778 177.36 340.381 177.628 341.177 177.628C341.973 177.628 342.576 177.362 342.986 176.83C343.401 176.293 343.608 175.509 343.608 174.479C343.608 173.458 343.401 172.685 342.986 172.157C342.576 171.625 341.968 171.359 341.162 171.359C340.366 171.359 339.766 171.62 339.36 172.143C338.955 172.665 338.752 173.444 338.752 174.479ZM352.688 178.5V173.307C352.688 172.653 352.539 172.165 352.241 171.842C351.943 171.52 351.477 171.359 350.842 171.359C350.002 171.359 349.387 171.586 348.996 172.04C348.605 172.494 348.41 173.244 348.41 174.289V178.5H347.194V170.473H348.183L348.381 171.571H348.439C348.688 171.176 349.038 170.871 349.487 170.656C349.936 170.436 350.437 170.326 350.988 170.326C351.955 170.326 352.683 170.561 353.171 171.029C353.659 171.493 353.903 172.238 353.903 173.263V178.5H352.688ZM359.188 177.643C359.403 177.643 359.611 177.628 359.811 177.599C360.011 177.565 360.17 177.531 360.287 177.497V178.427C360.155 178.49 359.96 178.542 359.701 178.581C359.447 178.625 359.218 178.646 359.013 178.646C357.46 178.646 356.684 177.829 356.684 176.193V171.417H355.534V170.832L356.684 170.326L357.196 168.612H357.899V170.473H360.229V171.417H357.899V176.142C357.899 176.625 358.014 176.996 358.244 177.255C358.473 177.514 358.788 177.643 359.188 177.643ZM367.022 178.5L366.781 177.357H366.722C366.322 177.86 365.921 178.202 365.521 178.383C365.125 178.559 364.63 178.646 364.034 178.646C363.238 178.646 362.613 178.441 362.159 178.031C361.71 177.621 361.485 177.038 361.485 176.281C361.485 174.66 362.782 173.81 365.375 173.732L366.737 173.688V173.19C366.737 172.56 366.6 172.096 366.327 171.798C366.058 171.496 365.626 171.344 365.03 171.344C364.361 171.344 363.604 171.549 362.76 171.959L362.386 171.029C362.782 170.814 363.214 170.646 363.683 170.524C364.156 170.402 364.63 170.341 365.104 170.341C366.061 170.341 366.769 170.553 367.228 170.978C367.691 171.403 367.923 172.084 367.923 173.021V178.5H367.022ZM364.276 177.643C365.033 177.643 365.626 177.436 366.056 177.021C366.49 176.605 366.708 176.024 366.708 175.277V174.552L365.492 174.604C364.525 174.638 363.827 174.789 363.397 175.058C362.972 175.321 362.76 175.734 362.76 176.295C362.76 176.735 362.892 177.069 363.155 177.299C363.424 177.528 363.797 177.643 364.276 177.643ZM373.831 178.646C372.669 178.646 371.768 178.29 371.128 177.577C370.494 176.859 370.176 175.846 370.176 174.538C370.176 173.195 370.499 172.157 371.143 171.425C371.792 170.692 372.715 170.326 373.912 170.326C374.297 170.326 374.683 170.368 375.069 170.451C375.455 170.534 375.757 170.631 375.977 170.744L375.604 171.776C375.335 171.669 375.042 171.581 374.725 171.513C374.407 171.439 374.126 171.403 373.882 171.403C372.251 171.403 371.436 172.443 371.436 174.523C371.436 175.509 371.634 176.266 372.029 176.793C372.43 177.321 373.021 177.584 373.802 177.584C374.471 177.584 375.157 177.44 375.86 177.152V178.229C375.323 178.507 374.646 178.646 373.831 178.646ZM380.552 177.643C380.767 177.643 380.974 177.628 381.174 177.599C381.375 177.565 381.533 177.531 381.65 177.497V178.427C381.519 178.49 381.323 178.542 381.064 178.581C380.811 178.625 380.581 178.646 380.376 178.646C378.823 178.646 378.047 177.829 378.047 176.193V171.417H376.897V170.832L378.047 170.326L378.56 168.612H379.263V170.473H381.592V171.417H379.263V176.142C379.263 176.625 379.377 176.996 379.607 177.255C379.836 177.514 380.151 177.643 380.552 177.643ZM395.802 167.792V174.721C395.802 175.941 395.434 176.901 394.696 177.599C393.959 178.297 392.946 178.646 391.657 178.646C390.368 178.646 389.369 178.295 388.661 177.592C387.958 176.889 387.606 175.922 387.606 174.691V167.792H388.852V174.779C388.852 175.673 389.096 176.359 389.584 176.837C390.072 177.316 390.79 177.555 391.737 177.555C392.641 177.555 393.336 177.316 393.825 176.837C394.313 176.354 394.557 175.663 394.557 174.765V167.792H395.802ZM403.827 176.31C403.827 177.057 403.548 177.633 402.992 178.039C402.435 178.444 401.654 178.646 400.648 178.646C399.583 178.646 398.753 178.478 398.158 178.141V177.013C398.543 177.208 398.956 177.362 399.396 177.475C399.84 177.587 400.267 177.643 400.677 177.643C401.312 177.643 401.8 177.543 402.142 177.343C402.484 177.138 402.655 176.828 402.655 176.413C402.655 176.1 402.518 175.834 402.245 175.614C401.976 175.39 401.449 175.126 400.663 174.823C399.916 174.545 399.383 174.303 399.066 174.098C398.753 173.888 398.519 173.651 398.363 173.388C398.211 173.124 398.136 172.809 398.136 172.443C398.136 171.789 398.402 171.273 398.934 170.897C399.466 170.517 400.196 170.326 401.124 170.326C401.988 170.326 402.833 170.502 403.658 170.854L403.226 171.842C402.42 171.51 401.69 171.344 401.036 171.344C400.46 171.344 400.025 171.435 399.732 171.615C399.439 171.796 399.293 172.045 399.293 172.362C399.293 172.577 399.347 172.76 399.454 172.912C399.566 173.063 399.745 173.207 399.989 173.344C400.233 173.48 400.702 173.678 401.395 173.937C402.347 174.284 402.989 174.633 403.321 174.984C403.658 175.336 403.827 175.778 403.827 176.31Z" fill="white"/>
</g>
<defs>
<clipPath id="clip0">
<rect width="170" height="50" fill="white" transform="translate(281 150.5)"/>
</clipPath>
</defs>
</svg>
