<svg width="500" height="60" viewBox="0 0 500 60" fill="none" xmlns="http://www.w3.org/2000/svg">
<path d="M9.83643 45.5H8.41553L2.56348 36.5132H2.50488C2.58301 37.5679 2.62207 38.5347 2.62207 39.4136V45.5H1.47217V34.792H2.87842L8.71582 43.7422H8.77441C8.76465 43.6104 8.74268 43.188 8.7085 42.4751C8.67432 41.7573 8.66211 41.2446 8.67188 40.937V34.792H9.83643V45.5ZM18.0342 45.5L17.7925 44.3574H17.7339C17.3335 44.8604 16.9331 45.2021 16.5327 45.3828C16.1372 45.5586 15.6416 45.6465 15.0459 45.6465C14.25 45.6465 13.625 45.4414 13.1709 45.0312C12.7217 44.6211 12.4971 44.0376 12.4971 43.2808C12.4971 41.6597 13.7935 40.8101 16.3862 40.7319L17.7485 40.688V40.1899C17.7485 39.5601 17.6118 39.0962 17.3384 38.7983C17.0698 38.4956 16.6377 38.3442 16.042 38.3442C15.373 38.3442 14.6162 38.5493 13.7715 38.9595L13.3979 38.0293C13.7935 37.8145 14.2256 37.646 14.6943 37.5239C15.168 37.4019 15.6416 37.3408 16.1152 37.3408C17.0723 37.3408 17.7803 37.5532 18.2393 37.978C18.7031 38.4028 18.9351 39.084 18.9351 40.0215V45.5H18.0342ZM15.2876 44.6431C16.0444 44.6431 16.6377 44.4355 17.0674 44.0205C17.502 43.6055 17.7192 43.0244 17.7192 42.2773V41.5522L16.5034 41.6035C15.5366 41.6377 14.8384 41.7891 14.4087 42.0576C13.9839 42.3213 13.7715 42.7339 13.7715 43.2954C13.7715 43.7349 13.9033 44.0693 14.167 44.2988C14.4355 44.5283 14.8091 44.6431 15.2876 44.6431ZM32.1792 45.5V40.2778C32.1792 39.6382 32.0425 39.1597 31.769 38.8423C31.4956 38.52 31.0708 38.3589 30.4946 38.3589C29.7378 38.3589 29.1787 38.5762 28.8174 39.0107C28.4561 39.4453 28.2754 40.1143 28.2754 41.0176V45.5H27.0596V40.2778C27.0596 39.6382 26.9229 39.1597 26.6494 38.8423C26.376 38.52 25.9487 38.3589 25.3677 38.3589C24.606 38.3589 24.0469 38.5884 23.6904 39.0474C23.3389 39.5015 23.1631 40.2485 23.1631 41.2886V45.5H21.9473V37.4727H22.936L23.1338 38.5713H23.1924C23.4219 38.1807 23.7441 37.8755 24.1592 37.6558C24.5791 37.436 25.0479 37.3262 25.5654 37.3262C26.8203 37.3262 27.6406 37.7803 28.0264 38.6885H28.085C28.3242 38.2686 28.6709 37.9365 29.125 37.6924C29.5791 37.4482 30.0967 37.3262 30.6777 37.3262C31.5859 37.3262 32.2646 37.5605 32.7139 38.0293C33.168 38.4932 33.395 39.2378 33.395 40.2632V45.5H32.1792ZM39.7983 45.6465C38.6118 45.6465 37.6743 45.2852 36.9858 44.5625C36.3022 43.8398 35.9604 42.8364 35.9604 41.5522C35.9604 40.2583 36.2778 39.2305 36.9126 38.4688C37.5522 37.707 38.4092 37.3262 39.4834 37.3262C40.4893 37.3262 41.2852 37.6582 41.8711 38.3223C42.457 38.9814 42.75 39.853 42.75 40.937V41.7061H37.2202C37.2446 42.6484 37.4814 43.3638 37.9307 43.8521C38.3848 44.3403 39.022 44.5845 39.8423 44.5845C40.7065 44.5845 41.561 44.4038 42.4058 44.0425V45.1265C41.9761 45.312 41.5684 45.4438 41.1826 45.522C40.8018 45.605 40.3403 45.6465 39.7983 45.6465ZM39.4688 38.3442C38.8242 38.3442 38.3091 38.5542 37.9233 38.9741C37.5425 39.394 37.3179 39.9751 37.2495 40.7173H41.4463C41.4463 39.9507 41.2754 39.3647 40.9336 38.9595C40.5918 38.5493 40.1035 38.3442 39.4688 38.3442Z" fill="white"/>
<rect x="1" y="57" width="450" height="2" fill="white"/>
</svg>
