<svg width="500" height="76" viewBox="0 0 500 76" fill="none" xmlns="http://www.w3.org/2000/svg">
<path d="M7.44141 45H1.47217V34.292H7.44141V35.3979H2.71729V38.8477H7.15576V39.9463H2.71729V43.8867H7.44141V45ZM20.3706 45V39.7778C20.3706 39.1382 20.2339 38.6597 19.9604 38.3423C19.687 38.02 19.2622 37.8589 18.686 37.8589C17.9292 37.8589 17.3701 38.0762 17.0088 38.5107C16.6475 38.9453 16.4668 39.6143 16.4668 40.5176V45H15.251V39.7778C15.251 39.1382 15.1143 38.6597 14.8408 38.3423C14.5674 38.02 14.1401 37.8589 13.5591 37.8589C12.7974 37.8589 12.2383 38.0884 11.8818 38.5474C11.5303 39.0015 11.3545 39.7485 11.3545 40.7886V45H10.1387V36.9727H11.1274L11.3252 38.0713H11.3838C11.6133 37.6807 11.9355 37.3755 12.3506 37.1558C12.7705 36.936 13.2393 36.8262 13.7568 36.8262C15.0117 36.8262 15.832 37.2803 16.2178 38.1885H16.2764C16.5156 37.7686 16.8623 37.4365 17.3164 37.1924C17.7705 36.9482 18.2881 36.8262 18.8691 36.8262C19.7773 36.8262 20.4561 37.0605 20.9053 37.5293C21.3594 37.9932 21.5864 38.7378 21.5864 39.7632V45H20.3706ZM29.5352 45L29.2935 43.8574H29.2349C28.8345 44.3604 28.4341 44.7021 28.0337 44.8828C27.6382 45.0586 27.1426 45.1465 26.5469 45.1465C25.751 45.1465 25.126 44.9414 24.6719 44.5312C24.2227 44.1211 23.998 43.5376 23.998 42.7808C23.998 41.1597 25.2944 40.3101 27.8872 40.2319L29.2495 40.188V39.6899C29.2495 39.0601 29.1128 38.5962 28.8394 38.2983C28.5708 37.9956 28.1387 37.8442 27.543 37.8442C26.874 37.8442 26.1172 38.0493 25.2725 38.4595L24.8989 37.5293C25.2944 37.3145 25.7266 37.146 26.1953 37.0239C26.6689 36.9019 27.1426 36.8408 27.6162 36.8408C28.5732 36.8408 29.2812 37.0532 29.7402 37.478C30.2041 37.9028 30.436 38.584 30.436 39.5215V45H29.5352ZM26.7886 44.1431C27.5454 44.1431 28.1387 43.9355 28.5684 43.5205C29.0029 43.1055 29.2202 42.5244 29.2202 41.7773V41.0522L28.0044 41.1035C27.0376 41.1377 26.3394 41.2891 25.9097 41.5576C25.4849 41.8213 25.2725 42.2339 25.2725 42.7954C25.2725 43.2349 25.4043 43.5693 25.668 43.7988C25.9365 44.0283 26.3101 44.1431 26.7886 44.1431ZM34.6641 45H33.4482V36.9727H34.6641V45ZM33.3457 34.7974C33.3457 34.519 33.4141 34.3164 33.5508 34.1895C33.6875 34.0576 33.8584 33.9917 34.0635 33.9917C34.2588 33.9917 34.4272 34.0576 34.5688 34.1895C34.7104 34.3213 34.7812 34.5239 34.7812 34.7974C34.7812 35.0708 34.7104 35.2759 34.5688 35.4126C34.4272 35.5444 34.2588 35.6104 34.0635 35.6104C33.8584 35.6104 33.6875 35.5444 33.5508 35.4126C33.4141 35.2759 33.3457 35.0708 33.3457 34.7974ZM38.958 45H37.7422V33.6035H38.958V45Z" fill="white"/>
<rect x="1" y="56.5" width="450" height="2" fill="white"/>
</svg>
