<svg width="1440" height="700" viewBox="0 0 1440 700" fill="none" xmlns="http://www.w3.org/2000/svg">
<path d="M0 0H720V700H0V0Z" fill="white"/>
<path d="M720 0H1440V700H720V0Z" fill="white"/>
<path d="M720 0H1440V700H720V0Z" fill="white"/>
<path d="M721 1H1441V701H721V1Z" fill="white"/>
<path fill-rule="evenodd" clip-rule="evenodd" d="M989 322H1250V385C1250 385 1009.1 385 1001.51 385C993.916 385 989 385 989 385V322Z" fill="white"/>
<path fill-rule="evenodd" clip-rule="evenodd" d="M988.966 322H1015.08L988.966 305.242V322Z" fill="white"/>
<path d="M1007.65 338.901C1006.56 338.901 1005.69 339.268 1005.05 340.002C1004.42 340.731 1004.1 341.731 1004.1 343.003C1004.1 344.311 1004.4 345.323 1005.01 346.038C1005.63 346.749 1006.5 347.104 1007.64 347.104C1008.34 347.104 1009.13 346.979 1010.03 346.729V347.747C1009.33 348.007 1008.48 348.137 1007.46 348.137C1005.99 348.137 1004.85 347.69 1004.05 346.797C1003.25 345.904 1002.85 344.634 1002.85 342.989C1002.85 341.959 1003.05 341.057 1003.43 340.282C1003.82 339.507 1004.37 338.91 1005.1 338.491C1005.83 338.072 1006.68 337.862 1007.67 337.862C1008.72 337.862 1009.63 338.054 1010.42 338.437L1009.92 339.435C1009.17 339.079 1008.41 338.901 1007.65 338.901Z" fill="white"/>
<path d="M1018.5 344.247C1018.5 345.468 1018.19 346.423 1017.58 347.111C1016.96 347.795 1016.11 348.137 1015.03 348.137C1014.36 348.137 1013.76 347.979 1013.25 347.665C1012.73 347.351 1012.32 346.899 1012.04 346.312C1011.76 345.724 1011.62 345.035 1011.62 344.247C1011.62 343.026 1011.92 342.076 1012.53 341.396C1013.14 340.713 1013.99 340.371 1015.08 340.371C1016.13 340.371 1016.96 340.72 1017.57 341.417C1018.19 342.114 1018.5 343.058 1018.5 344.247ZM1012.79 344.247C1012.79 345.204 1012.99 345.933 1013.37 346.435C1013.75 346.936 1014.31 347.187 1015.06 347.187C1015.8 347.187 1016.36 346.938 1016.75 346.441C1017.13 345.94 1017.33 345.209 1017.33 344.247C1017.33 343.295 1017.13 342.572 1016.75 342.08C1016.36 341.583 1015.79 341.335 1015.04 341.335C1014.3 341.335 1013.74 341.579 1013.36 342.066C1012.98 342.554 1012.79 343.281 1012.79 344.247Z" fill="white"/>
<path d="M1030.05 348V343.126C1030.05 342.529 1029.92 342.082 1029.67 341.786C1029.41 341.485 1029.01 341.335 1028.48 341.335C1027.77 341.335 1027.25 341.538 1026.91 341.943C1026.57 342.349 1026.4 342.973 1026.4 343.816V348H1025.27V343.126C1025.27 342.529 1025.14 342.082 1024.89 341.786C1024.63 341.485 1024.23 341.335 1023.69 341.335C1022.98 341.335 1022.46 341.549 1022.12 341.978C1021.8 342.401 1021.63 343.099 1021.63 344.069V348H1020.5V340.508H1021.42L1021.61 341.533H1021.66C1021.87 341.169 1022.18 340.884 1022.56 340.679C1022.95 340.474 1023.39 340.371 1023.88 340.371C1025.05 340.371 1025.81 340.795 1026.17 341.643H1026.23C1026.45 341.251 1026.77 340.941 1027.2 340.713C1027.62 340.485 1028.1 340.371 1028.65 340.371C1029.49 340.371 1030.13 340.59 1030.55 341.027C1030.97 341.46 1031.18 342.155 1031.18 343.112V348H1030.05Z" fill="white"/>
<path d="M1037.01 348.137C1036.53 348.137 1036.08 348.048 1035.67 347.87C1035.27 347.688 1034.94 347.41 1034.66 347.036H1034.58C1034.63 347.474 1034.66 347.888 1034.66 348.28V351.363H1033.53V340.508H1034.45L1034.61 341.533H1034.66C1034.95 341.123 1035.29 340.827 1035.68 340.645C1036.07 340.462 1036.51 340.371 1037.01 340.371C1038.01 340.371 1038.77 340.711 1039.31 341.39C1039.85 342.069 1040.12 343.021 1040.12 344.247C1040.12 345.478 1039.85 346.435 1039.3 347.118C1038.75 347.797 1037.99 348.137 1037.01 348.137ZM1036.85 341.335C1036.08 341.335 1035.53 341.547 1035.19 341.971C1034.85 342.395 1034.67 343.069 1034.66 343.994V344.247C1034.66 345.3 1034.84 346.054 1035.19 346.51C1035.54 346.961 1036.1 347.187 1036.88 347.187C1037.52 347.187 1038.03 346.924 1038.39 346.4C1038.76 345.876 1038.95 345.154 1038.95 344.233C1038.95 343.299 1038.76 342.584 1038.39 342.087C1038.03 341.586 1037.51 341.335 1036.85 341.335Z" fill="white"/>
<path d="M1046.72 348L1046.5 346.934H1046.44C1046.07 347.403 1045.69 347.722 1045.32 347.891C1044.95 348.055 1044.49 348.137 1043.93 348.137C1043.19 348.137 1042.61 347.945 1042.18 347.562C1041.76 347.18 1041.55 346.635 1041.55 345.929C1041.55 344.416 1042.76 343.623 1045.18 343.55L1046.45 343.509V343.044C1046.45 342.456 1046.33 342.023 1046.07 341.745C1045.82 341.463 1045.42 341.321 1044.86 341.321C1044.24 341.321 1043.53 341.513 1042.74 341.896L1042.39 341.027C1042.76 340.827 1043.17 340.67 1043.6 340.556C1044.05 340.442 1044.49 340.385 1044.93 340.385C1045.82 340.385 1046.48 340.583 1046.91 340.979C1047.35 341.376 1047.56 342.012 1047.56 342.887V348H1046.72ZM1044.16 347.2C1044.86 347.2 1045.42 347.007 1045.82 346.619C1046.22 346.232 1046.43 345.689 1046.43 344.992V344.315L1045.29 344.363C1044.39 344.395 1043.74 344.536 1043.34 344.787C1042.94 345.033 1042.74 345.418 1042.74 345.942C1042.74 346.353 1042.87 346.665 1043.11 346.879C1043.36 347.093 1043.71 347.2 1044.16 347.2Z" fill="white"/>
<path d="M1055.03 348V343.153C1055.03 342.543 1054.89 342.087 1054.62 341.786C1054.34 341.485 1053.9 341.335 1053.31 341.335C1052.53 341.335 1051.95 341.547 1051.59 341.971C1051.22 342.395 1051.04 343.094 1051.04 344.069V348H1049.91V340.508H1050.83L1051.01 341.533H1051.07C1051.3 341.164 1051.63 340.879 1052.05 340.679C1052.47 340.474 1052.93 340.371 1053.45 340.371C1054.35 340.371 1055.03 340.59 1055.48 341.027C1055.94 341.46 1056.17 342.155 1056.17 343.112V348H1055.03Z" fill="white"/>
<path d="M1057.32 340.508H1058.53L1060.17 344.78C1060.53 345.756 1060.76 346.46 1060.84 346.893H1060.9C1060.96 346.66 1061.08 346.264 1061.27 345.703C1061.46 345.138 1062.08 343.406 1063.13 340.508H1064.34L1061.12 349.039C1060.81 349.882 1060.43 350.479 1060 350.83C1059.58 351.186 1059.06 351.363 1058.44 351.363C1058.09 351.363 1057.75 351.325 1057.41 351.247V350.338C1057.66 350.393 1057.94 350.42 1058.25 350.42C1059.03 350.42 1059.59 349.982 1059.92 349.107L1060.34 348.041L1057.32 340.508Z" fill="white"/>
<path d="M1077.17 348H1075.85L1070.39 339.612H1070.33C1070.4 340.597 1070.44 341.499 1070.44 342.319V348H1069.37V338.006H1070.68L1076.13 346.359H1076.18C1076.17 346.236 1076.15 345.842 1076.12 345.177C1076.09 344.507 1076.08 344.028 1076.09 343.741V338.006H1077.17V348Z" fill="white"/>
<path d="M1084.36 348L1084.13 346.934H1084.08C1083.71 347.403 1083.33 347.722 1082.96 347.891C1082.59 348.055 1082.13 348.137 1081.57 348.137C1080.83 348.137 1080.24 347.945 1079.82 347.562C1079.4 347.18 1079.19 346.635 1079.19 345.929C1079.19 344.416 1080.4 343.623 1082.82 343.55L1084.09 343.509V343.044C1084.09 342.456 1083.97 342.023 1083.71 341.745C1083.46 341.463 1083.06 341.321 1082.5 341.321C1081.88 341.321 1081.17 341.513 1080.38 341.896L1080.03 341.027C1080.4 340.827 1080.8 340.67 1081.24 340.556C1081.68 340.442 1082.13 340.385 1082.57 340.385C1083.46 340.385 1084.12 340.583 1084.55 340.979C1084.98 341.376 1085.2 342.012 1085.2 342.887V348H1084.36ZM1081.8 347.2C1082.5 347.2 1083.06 347.007 1083.46 346.619C1083.86 346.232 1084.07 345.689 1084.07 344.992V344.315L1082.93 344.363C1082.03 344.395 1081.38 344.536 1080.98 344.787C1080.58 345.033 1080.38 345.418 1080.38 345.942C1080.38 346.353 1080.5 346.665 1080.75 346.879C1081 347.093 1081.35 347.2 1081.8 347.2Z" fill="white"/>
<path d="M1097.09 348V343.126C1097.09 342.529 1096.97 342.082 1096.71 341.786C1096.46 341.485 1096.06 341.335 1095.52 341.335C1094.82 341.335 1094.29 341.538 1093.96 341.943C1093.62 342.349 1093.45 342.973 1093.45 343.816V348H1092.32V343.126C1092.32 342.529 1092.19 342.082 1091.93 341.786C1091.68 341.485 1091.28 341.335 1090.74 341.335C1090.03 341.335 1089.5 341.549 1089.17 341.978C1088.84 342.401 1088.68 343.099 1088.68 344.069V348H1087.54V340.508H1088.47L1088.65 341.533H1088.71C1088.92 341.169 1089.22 340.884 1089.61 340.679C1090 340.474 1090.44 340.371 1090.92 340.371C1092.09 340.371 1092.86 340.795 1093.22 341.643H1093.27C1093.5 341.251 1093.82 340.941 1094.24 340.713C1094.67 340.485 1095.15 340.371 1095.69 340.371C1096.54 340.371 1097.17 340.59 1097.59 341.027C1098.02 341.46 1098.23 342.155 1098.23 343.112V348H1097.09Z" fill="white"/>
<path d="M1103.74 348.137C1102.63 348.137 1101.76 347.799 1101.11 347.125C1100.48 346.451 1100.16 345.514 1100.16 344.315C1100.16 343.108 1100.45 342.148 1101.05 341.438C1101.64 340.727 1102.44 340.371 1103.45 340.371C1104.38 340.371 1105.13 340.681 1105.67 341.301C1106.22 341.916 1106.49 342.729 1106.49 343.741V344.459H1101.33C1101.36 345.339 1101.58 346.006 1102 346.462C1102.42 346.918 1103.01 347.146 1103.78 347.146C1104.59 347.146 1105.38 346.977 1106.17 346.64V347.651C1105.77 347.825 1105.39 347.948 1105.03 348.021C1104.68 348.098 1104.25 348.137 1103.74 348.137ZM1103.43 341.321C1102.83 341.321 1102.35 341.517 1101.99 341.909C1101.63 342.301 1101.42 342.843 1101.36 343.536H1105.28C1105.28 342.821 1105.12 342.274 1104.8 341.896C1104.48 341.513 1104.02 341.321 1103.43 341.321Z" fill="white"/>
<path d="M1009.01 365.341C1009.01 366.22 1008.69 366.906 1008.06 367.398C1007.42 367.891 1006.55 368.137 1005.46 368.137C1004.27 368.137 1003.36 367.984 1002.72 367.679V366.558C1003.13 366.731 1003.58 366.868 1004.06 366.968C1004.55 367.068 1005.03 367.118 1005.5 367.118C1006.27 367.118 1006.86 366.972 1007.25 366.681C1007.64 366.384 1007.84 365.974 1007.84 365.45C1007.84 365.104 1007.77 364.821 1007.63 364.603C1007.49 364.379 1007.26 364.174 1006.93 363.987C1006.61 363.8 1006.11 363.589 1005.45 363.352C1004.52 363.019 1003.85 362.625 1003.45 362.169C1003.05 361.713 1002.85 361.118 1002.85 360.385C1002.85 359.615 1003.14 359.002 1003.72 358.546C1004.3 358.09 1005.07 357.862 1006.02 357.862C1007.01 357.862 1007.93 358.045 1008.76 358.409L1008.4 359.421C1007.57 359.075 1006.77 358.901 1005.99 358.901C1005.38 358.901 1004.9 359.034 1004.55 359.298C1004.2 359.562 1004.03 359.929 1004.03 360.398C1004.03 360.745 1004.09 361.03 1004.22 361.253C1004.35 361.472 1004.56 361.674 1004.86 361.861C1005.17 362.044 1005.63 362.246 1006.26 362.47C1007.31 362.843 1008.03 363.244 1008.42 363.673C1008.82 364.101 1009.01 364.657 1009.01 365.341Z" fill="white"/>
<path d="M1017.35 364.247C1017.35 365.468 1017.05 366.423 1016.43 367.111C1015.82 367.795 1014.97 368.137 1013.88 368.137C1013.21 368.137 1012.62 367.979 1012.1 367.665C1011.58 367.351 1011.18 366.899 1010.89 366.312C1010.61 365.724 1010.47 365.035 1010.47 364.247C1010.47 363.026 1010.78 362.076 1011.39 361.396C1012 360.713 1012.84 360.371 1013.93 360.371C1014.98 360.371 1015.81 360.72 1016.42 361.417C1017.04 362.114 1017.35 363.058 1017.35 364.247ZM1011.65 364.247C1011.65 365.204 1011.84 365.933 1012.22 366.435C1012.6 366.936 1013.17 367.187 1013.91 367.187C1014.65 367.187 1015.21 366.938 1015.6 366.441C1015.98 365.94 1016.18 365.209 1016.18 364.247C1016.18 363.295 1015.98 362.572 1015.6 362.08C1015.21 361.583 1014.65 361.335 1013.89 361.335C1013.15 361.335 1012.59 361.579 1012.21 362.066C1011.83 362.554 1011.65 363.281 1011.65 364.247Z" fill="white"/>
<path d="M1020.42 360.508V365.368C1020.42 365.979 1020.56 366.435 1020.83 366.735C1021.11 367.036 1021.55 367.187 1022.14 367.187C1022.92 367.187 1023.49 366.972 1023.85 366.544C1024.22 366.116 1024.4 365.416 1024.4 364.445V360.508H1025.54V368H1024.6L1024.44 366.995H1024.37C1024.14 367.364 1023.82 367.647 1023.4 367.843C1022.99 368.039 1022.52 368.137 1022 368.137C1021.08 368.137 1020.4 367.92 1019.94 367.487C1019.49 367.054 1019.27 366.362 1019.27 365.409V360.508H1020.42Z" fill="white"/>
<path d="M1030.37 367.2C1030.57 367.2 1030.76 367.187 1030.95 367.159C1031.14 367.127 1031.29 367.095 1031.39 367.063V367.932C1031.27 367.991 1031.09 368.039 1030.85 368.075C1030.61 368.116 1030.4 368.137 1030.21 368.137C1028.76 368.137 1028.03 367.373 1028.03 365.847V361.39H1026.96V360.843L1028.03 360.371L1028.51 358.771H1029.17V360.508H1031.34V361.39H1029.17V365.799C1029.17 366.25 1029.27 366.596 1029.49 366.838C1029.7 367.079 1030 367.2 1030.37 367.2Z" fill="white"/>
<path d="M1038.03 368V363.153C1038.03 362.543 1037.89 362.087 1037.61 361.786C1037.33 361.485 1036.9 361.335 1036.3 361.335C1035.51 361.335 1034.94 361.549 1034.57 361.978C1034.21 362.406 1034.03 363.108 1034.03 364.083V368H1032.9V357.363H1034.03V360.583C1034.03 360.97 1034.01 361.292 1033.98 361.547H1034.05C1034.27 361.187 1034.59 360.904 1035 360.699C1035.41 360.49 1035.88 360.385 1036.41 360.385C1037.33 360.385 1038.01 360.604 1038.47 361.041C1038.93 361.474 1039.16 362.164 1039.16 363.112V368H1038.03Z" fill="white"/>
<path d="M1047.63 360.508V361.226L1046.24 361.39C1046.37 361.549 1046.48 361.759 1046.58 362.019C1046.68 362.274 1046.73 362.563 1046.73 362.887C1046.73 363.62 1046.48 364.206 1045.98 364.644C1045.48 365.081 1044.79 365.3 1043.92 365.3C1043.69 365.3 1043.49 365.282 1043.29 365.245C1042.81 365.5 1042.56 365.822 1042.56 366.209C1042.56 366.414 1042.65 366.567 1042.82 366.667C1042.99 366.763 1043.28 366.811 1043.69 366.811H1045.01C1045.82 366.811 1046.44 366.981 1046.88 367.323C1047.32 367.665 1047.53 368.162 1047.53 368.813C1047.53 369.643 1047.2 370.274 1046.54 370.707C1045.87 371.145 1044.9 371.363 1043.62 371.363C1042.64 371.363 1041.89 371.181 1041.35 370.816C1040.83 370.452 1040.56 369.937 1040.56 369.271C1040.56 368.816 1040.71 368.422 1041 368.089C1041.29 367.756 1041.7 367.531 1042.23 367.412C1042.04 367.326 1041.88 367.191 1041.74 367.009C1041.62 366.826 1041.55 366.615 1041.55 366.373C1041.55 366.1 1041.63 365.86 1041.77 365.655C1041.92 365.45 1042.15 365.252 1042.46 365.061C1042.07 364.901 1041.76 364.63 1041.51 364.247C1041.27 363.864 1041.15 363.427 1041.15 362.935C1041.15 362.114 1041.4 361.483 1041.89 361.041C1042.38 360.594 1043.08 360.371 1043.98 360.371C1044.37 360.371 1044.72 360.417 1045.04 360.508H1047.63ZM1041.66 369.258C1041.66 369.663 1041.83 369.971 1042.17 370.181C1042.51 370.39 1043 370.495 1043.64 370.495C1044.59 370.495 1045.29 370.352 1045.75 370.064C1046.21 369.782 1046.44 369.397 1046.44 368.909C1046.44 368.504 1046.32 368.221 1046.06 368.062C1045.81 367.907 1045.34 367.829 1044.65 367.829H1043.29C1042.77 367.829 1042.37 367.952 1042.09 368.198C1041.8 368.444 1041.66 368.798 1041.66 369.258ZM1042.27 362.907C1042.27 363.431 1042.42 363.828 1042.71 364.097C1043.01 364.366 1043.42 364.5 1043.95 364.5C1045.06 364.5 1045.61 363.962 1045.61 362.887C1045.61 361.761 1045.05 361.198 1043.93 361.198C1043.4 361.198 1042.99 361.342 1042.7 361.629C1042.41 361.916 1042.27 362.342 1042.27 362.907Z" fill="white"/>
<path d="M1053.78 368L1053.55 366.934H1053.5C1053.12 367.403 1052.75 367.722 1052.37 367.891C1052 368.055 1051.54 368.137 1050.99 368.137C1050.24 368.137 1049.66 367.945 1049.24 367.562C1048.82 367.18 1048.61 366.635 1048.61 365.929C1048.61 364.416 1049.82 363.623 1052.24 363.55L1053.51 363.509V363.044C1053.51 362.456 1053.38 362.023 1053.13 361.745C1052.88 361.463 1052.47 361.321 1051.92 361.321C1051.29 361.321 1050.59 361.513 1049.8 361.896L1049.45 361.027C1049.82 360.827 1050.22 360.67 1050.66 360.556C1051.1 360.442 1051.54 360.385 1051.98 360.385C1052.88 360.385 1053.54 360.583 1053.97 360.979C1054.4 361.376 1054.62 362.012 1054.62 362.887V368H1053.78ZM1051.21 367.2C1051.92 367.2 1052.47 367.007 1052.87 366.619C1053.28 366.232 1053.48 365.689 1053.48 364.992V364.315L1052.35 364.363C1051.44 364.395 1050.79 364.536 1050.39 364.787C1050 365.033 1049.8 365.418 1049.8 365.942C1049.8 366.353 1049.92 366.665 1050.17 366.879C1050.42 367.093 1050.77 367.2 1051.21 367.2Z" fill="white"/>
<path d="M1059.38 367.2C1059.58 367.2 1059.78 367.187 1059.96 367.159C1060.15 367.127 1060.3 367.095 1060.41 367.063V367.932C1060.28 367.991 1060.1 368.039 1059.86 368.075C1059.62 368.116 1059.41 368.137 1059.22 368.137C1057.77 368.137 1057.04 367.373 1057.04 365.847V361.39H1055.97V360.843L1057.04 360.371L1057.52 358.771H1058.18V360.508H1060.35V361.39H1058.18V365.799C1058.18 366.25 1058.28 366.596 1058.5 366.838C1058.71 367.079 1059.01 367.2 1059.38 367.2Z" fill="white"/>
<path d="M1065.08 368.137C1063.97 368.137 1063.09 367.799 1062.45 367.125C1061.81 366.451 1061.49 365.514 1061.49 364.315C1061.49 363.108 1061.79 362.148 1062.38 361.438C1062.98 360.727 1063.78 360.371 1064.78 360.371C1065.72 360.371 1066.46 360.681 1067.01 361.301C1067.56 361.916 1067.83 362.729 1067.83 363.741V364.459H1062.67C1062.69 365.339 1062.91 366.006 1063.33 366.462C1063.76 366.918 1064.35 367.146 1065.12 367.146C1065.92 367.146 1066.72 366.977 1067.51 366.64V367.651C1067.11 367.825 1066.73 367.948 1066.37 368.021C1066.01 368.098 1065.58 368.137 1065.08 368.137ZM1064.77 361.321C1064.17 361.321 1063.69 361.517 1063.33 361.909C1062.97 362.301 1062.76 362.843 1062.7 363.536H1066.61C1066.61 362.821 1066.45 362.274 1066.13 361.896C1065.82 361.513 1065.36 361.321 1064.77 361.321Z" fill="white"/>
<path d="M1070.96 366.373L1071.06 366.53C1070.94 366.986 1070.77 367.515 1070.55 368.116C1070.33 368.722 1070.1 369.285 1069.85 369.805H1069C1069.12 369.331 1069.26 368.745 1069.4 368.048C1069.55 367.351 1069.66 366.792 1069.72 366.373H1070.96Z" fill="white"/>
<path d="M1077.01 368V358.006H1078.17V366.947H1082.58V368H1077.01Z" fill="white"/>
<path d="M1090.58 364.247C1090.58 365.468 1090.27 366.423 1089.66 367.111C1089.04 367.795 1088.19 368.137 1087.11 368.137C1086.44 368.137 1085.84 367.979 1085.32 367.665C1084.8 367.351 1084.4 366.899 1084.12 366.312C1083.84 365.724 1083.7 365.035 1083.7 364.247C1083.7 363.026 1084 362.076 1084.61 361.396C1085.22 360.713 1086.07 360.371 1087.16 360.371C1088.2 360.371 1089.04 360.72 1089.65 361.417C1090.27 362.114 1090.58 363.058 1090.58 364.247ZM1084.87 364.247C1084.87 365.204 1085.06 365.933 1085.45 366.435C1085.83 366.936 1086.39 367.187 1087.13 367.187C1087.88 367.187 1088.44 366.938 1088.82 366.441C1089.21 365.94 1089.4 365.209 1089.4 364.247C1089.4 363.295 1089.21 362.572 1088.82 362.08C1088.44 361.583 1087.87 361.335 1087.12 361.335C1086.38 361.335 1085.82 361.579 1085.44 362.066C1085.06 362.554 1084.87 363.281 1084.87 364.247Z" fill="white"/>
<path d="M1097.7 368V363.153C1097.7 362.543 1097.56 362.087 1097.29 361.786C1097.01 361.485 1096.57 361.335 1095.98 361.335C1095.2 361.335 1094.62 361.547 1094.26 361.971C1093.89 362.395 1093.71 363.094 1093.71 364.069V368H1092.58V360.508H1093.5L1093.68 361.533H1093.74C1093.97 361.164 1094.3 360.879 1094.72 360.679C1095.14 360.474 1095.6 360.371 1096.12 360.371C1097.02 360.371 1097.7 360.59 1098.15 361.027C1098.61 361.46 1098.84 362.155 1098.84 363.112V368H1097.7Z" fill="white"/>
<path d="M1106.28 366.995H1106.21C1105.69 367.756 1104.91 368.137 1103.86 368.137C1102.88 368.137 1102.12 367.802 1101.57 367.132C1101.03 366.462 1100.76 365.509 1100.76 364.274C1100.76 363.039 1101.03 362.08 1101.58 361.396C1102.13 360.713 1102.89 360.371 1103.86 360.371C1104.88 360.371 1105.66 360.74 1106.2 361.479H1106.29L1106.24 360.938L1106.21 360.412V357.363H1107.35V368H1106.43L1106.28 366.995ZM1104.01 367.187C1104.78 367.187 1105.34 366.977 1105.69 366.558C1106.04 366.134 1106.21 365.452 1106.21 364.514V364.274C1106.21 363.213 1106.04 362.456 1105.68 362.005C1105.33 361.549 1104.77 361.321 1103.99 361.321C1103.33 361.321 1102.82 361.581 1102.46 362.101C1102.11 362.616 1101.93 363.345 1101.93 364.288C1101.93 365.245 1102.11 365.967 1102.46 366.455C1102.81 366.943 1103.33 367.187 1104.01 367.187Z" fill="white"/>
<path d="M1116.23 364.247C1116.23 365.468 1115.92 366.423 1115.31 367.111C1114.69 367.795 1113.84 368.137 1112.76 368.137C1112.09 368.137 1111.49 367.979 1110.97 367.665C1110.45 367.351 1110.05 366.899 1109.77 366.312C1109.49 365.724 1109.34 365.035 1109.34 364.247C1109.34 363.026 1109.65 362.076 1110.26 361.396C1110.87 360.713 1111.72 360.371 1112.8 360.371C1113.85 360.371 1114.68 360.72 1115.3 361.417C1115.92 362.114 1116.23 363.058 1116.23 364.247ZM1110.52 364.247C1110.52 365.204 1110.71 365.933 1111.09 366.435C1111.48 366.936 1112.04 367.187 1112.78 367.187C1113.53 367.187 1114.09 366.938 1114.47 366.441C1114.86 365.94 1115.05 365.209 1115.05 364.247C1115.05 363.295 1114.86 362.572 1114.47 362.08C1114.09 361.583 1113.52 361.335 1112.77 361.335C1112.03 361.335 1111.47 361.579 1111.09 362.066C1110.71 362.554 1110.52 363.281 1110.52 364.247Z" fill="white"/>
<path d="M1123.35 368V363.153C1123.35 362.543 1123.21 362.087 1122.93 361.786C1122.66 361.485 1122.22 361.335 1121.63 361.335C1120.85 361.335 1120.27 361.547 1119.91 361.971C1119.54 362.395 1119.36 363.094 1119.36 364.069V368H1118.22V360.508H1119.15L1119.33 361.533H1119.39C1119.62 361.164 1119.94 360.879 1120.36 360.679C1120.78 360.474 1121.25 360.371 1121.77 360.371C1122.67 360.371 1123.35 360.59 1123.8 361.027C1124.26 361.46 1124.49 362.155 1124.49 363.112V368H1123.35Z" fill="white"/>
<path d="M1128.01 366.373L1128.12 366.53C1128 366.986 1127.83 367.515 1127.6 368.116C1127.38 368.722 1127.15 369.285 1126.91 369.805H1126.05C1126.17 369.331 1126.31 368.745 1126.46 368.048C1126.61 367.351 1126.71 366.792 1126.77 366.373H1128.01Z" fill="white"/>
<path d="M1141.61 358.006V364.473C1141.61 365.612 1141.27 366.507 1140.58 367.159C1139.89 367.811 1138.94 368.137 1137.74 368.137C1136.54 368.137 1135.61 367.809 1134.95 367.152C1134.29 366.496 1133.96 365.594 1133.96 364.445V358.006H1135.12V364.527C1135.12 365.361 1135.35 366.002 1135.81 366.448C1136.26 366.895 1136.93 367.118 1137.82 367.118C1138.66 367.118 1139.31 366.895 1139.76 366.448C1140.22 365.997 1140.45 365.352 1140.45 364.514V358.006H1141.61Z" fill="white"/>
<path d="M1149.22 368V363.153C1149.22 362.543 1149.08 362.087 1148.8 361.786C1148.52 361.485 1148.09 361.335 1147.5 361.335C1146.71 361.335 1146.14 361.547 1145.77 361.971C1145.41 362.395 1145.23 363.094 1145.23 364.069V368H1144.09V360.508H1145.01L1145.2 361.533H1145.25C1145.49 361.164 1145.81 360.879 1146.23 360.679C1146.65 360.474 1147.12 360.371 1147.63 360.371C1148.54 360.371 1149.21 360.59 1149.67 361.027C1150.13 361.46 1150.35 362.155 1150.35 363.112V368H1149.22Z" fill="white"/>
<path d="M1153.83 368H1152.69V360.508H1153.83V368ZM1152.6 358.478C1152.6 358.218 1152.66 358.029 1152.79 357.91C1152.91 357.787 1153.07 357.726 1153.27 357.726C1153.45 357.726 1153.61 357.787 1153.74 357.91C1153.87 358.033 1153.94 358.222 1153.94 358.478C1153.94 358.733 1153.87 358.924 1153.74 359.052C1153.61 359.175 1153.45 359.236 1153.27 359.236C1153.07 359.236 1152.91 359.175 1152.79 359.052C1152.66 358.924 1152.6 358.733 1152.6 358.478Z" fill="white"/>
<path d="M1158.65 367.2C1158.85 367.2 1159.05 367.187 1159.23 367.159C1159.42 367.127 1159.57 367.095 1159.68 367.063V367.932C1159.55 367.991 1159.37 368.039 1159.13 368.075C1158.89 368.116 1158.68 368.137 1158.49 368.137C1157.04 368.137 1156.31 367.373 1156.31 365.847V361.39H1155.24V360.843L1156.31 360.371L1156.79 358.771H1157.45V360.508H1159.62V361.39H1157.45V365.799C1157.45 366.25 1157.56 366.596 1157.77 366.838C1157.98 367.079 1158.28 367.2 1158.65 367.2Z" fill="white"/>
<path d="M1164.35 368.137C1163.24 368.137 1162.36 367.799 1161.72 367.125C1161.08 366.451 1160.76 365.514 1160.76 364.315C1160.76 363.108 1161.06 362.148 1161.65 361.438C1162.25 360.727 1163.05 360.371 1164.05 360.371C1164.99 360.371 1165.73 360.681 1166.28 361.301C1166.83 361.916 1167.1 362.729 1167.1 363.741V364.459H1161.94C1161.96 365.339 1162.18 366.006 1162.6 366.462C1163.03 366.918 1163.62 367.146 1164.39 367.146C1165.19 367.146 1165.99 366.977 1166.78 366.64V367.651C1166.38 367.825 1166 367.948 1165.64 368.021C1165.28 368.098 1164.85 368.137 1164.35 368.137ZM1164.04 361.321C1163.44 361.321 1162.96 361.517 1162.6 361.909C1162.24 362.301 1162.03 362.843 1161.97 363.536H1165.88C1165.88 362.821 1165.73 362.274 1165.41 361.896C1165.09 361.513 1164.63 361.321 1164.04 361.321Z" fill="white"/>
<path d="M1174.14 366.995H1174.08C1173.56 367.756 1172.77 368.137 1171.73 368.137C1170.75 368.137 1169.99 367.802 1169.44 367.132C1168.9 366.462 1168.63 365.509 1168.63 364.274C1168.63 363.039 1168.9 362.08 1169.45 361.396C1169.99 360.713 1170.75 360.371 1171.73 360.371C1172.75 360.371 1173.53 360.74 1174.07 361.479H1174.16L1174.11 360.938L1174.08 360.412V357.363H1175.22V368H1174.29L1174.14 366.995ZM1171.87 367.187C1172.65 367.187 1173.21 366.977 1173.55 366.558C1173.91 366.134 1174.08 365.452 1174.08 364.514V364.274C1174.08 363.213 1173.9 362.456 1173.55 362.005C1173.2 361.549 1172.63 361.321 1171.86 361.321C1171.19 361.321 1170.68 361.581 1170.33 362.101C1169.98 362.616 1169.8 363.345 1169.8 364.288C1169.8 365.245 1169.98 365.967 1170.33 366.455C1170.68 366.943 1171.19 367.187 1171.87 367.187Z" fill="white"/>
<path d="M1188.66 368H1187.29L1183.64 363.153L1182.6 364.083V368H1181.44V358.006H1182.6V362.962L1187.13 358.006H1188.5L1184.49 362.347L1188.66 368Z" fill="white"/>
<path d="M1191 368H1189.87V360.508H1191V368ZM1189.77 358.478C1189.77 358.218 1189.83 358.029 1189.96 357.91C1190.09 357.787 1190.25 357.726 1190.44 357.726C1190.62 357.726 1190.78 357.787 1190.91 357.91C1191.04 358.033 1191.11 358.222 1191.11 358.478C1191.11 358.733 1191.04 358.924 1190.91 359.052C1190.78 359.175 1190.62 359.236 1190.44 359.236C1190.25 359.236 1190.09 359.175 1189.96 359.052C1189.83 358.924 1189.77 358.733 1189.77 358.478Z" fill="white"/>
<path d="M1198.53 368V363.153C1198.53 362.543 1198.39 362.087 1198.12 361.786C1197.84 361.485 1197.4 361.335 1196.81 361.335C1196.03 361.335 1195.45 361.547 1195.09 361.971C1194.72 362.395 1194.54 363.094 1194.54 364.069V368H1193.41V360.508H1194.33L1194.51 361.533H1194.57C1194.8 361.164 1195.13 360.879 1195.55 360.679C1195.97 360.474 1196.43 360.371 1196.95 360.371C1197.85 360.371 1198.53 360.59 1198.98 361.027C1199.44 361.46 1199.67 362.155 1199.67 363.112V368H1198.53Z" fill="white"/>
<path d="M1208.14 360.508V361.226L1206.75 361.39C1206.88 361.549 1206.99 361.759 1207.09 362.019C1207.19 362.274 1207.24 362.563 1207.24 362.887C1207.24 363.62 1206.99 364.206 1206.49 364.644C1205.99 365.081 1205.3 365.3 1204.43 365.3C1204.2 365.3 1203.99 365.282 1203.8 365.245C1203.31 365.5 1203.07 365.822 1203.07 366.209C1203.07 366.414 1203.16 366.567 1203.33 366.667C1203.49 366.763 1203.78 366.811 1204.19 366.811H1205.52C1206.33 366.811 1206.95 366.981 1207.39 367.323C1207.82 367.665 1208.04 368.162 1208.04 368.813C1208.04 369.643 1207.71 370.274 1207.04 370.707C1206.38 371.145 1205.41 371.363 1204.13 371.363C1203.15 371.363 1202.4 371.181 1201.86 370.816C1201.33 370.452 1201.07 369.937 1201.07 369.271C1201.07 368.816 1201.22 368.422 1201.51 368.089C1201.8 367.756 1202.21 367.531 1202.74 367.412C1202.55 367.326 1202.38 367.191 1202.25 367.009C1202.12 366.826 1202.06 366.615 1202.06 366.373C1202.06 366.1 1202.13 365.86 1202.28 365.655C1202.43 365.45 1202.66 365.252 1202.97 365.061C1202.58 364.901 1202.27 364.63 1202.02 364.247C1201.78 363.864 1201.66 363.427 1201.66 362.935C1201.66 362.114 1201.9 361.483 1202.4 361.041C1202.89 360.594 1203.58 360.371 1204.49 360.371C1204.88 360.371 1205.23 360.417 1205.55 360.508H1208.14ZM1202.16 369.258C1202.16 369.663 1202.33 369.971 1202.68 370.181C1203.02 370.39 1203.51 370.495 1204.15 370.495C1205.1 370.495 1205.8 370.352 1206.26 370.064C1206.72 369.782 1206.95 369.397 1206.95 368.909C1206.95 368.504 1206.82 368.221 1206.57 368.062C1206.32 367.907 1205.85 367.829 1205.16 367.829H1203.8C1203.28 367.829 1202.88 367.952 1202.59 368.198C1202.31 368.444 1202.16 368.798 1202.16 369.258ZM1202.78 362.907C1202.78 363.431 1202.93 363.828 1203.22 364.097C1203.52 364.366 1203.93 364.5 1204.46 364.5C1205.57 364.5 1206.12 363.962 1206.12 362.887C1206.12 361.761 1205.56 361.198 1204.44 361.198C1203.91 361.198 1203.5 361.342 1203.21 361.629C1202.92 361.916 1202.78 362.342 1202.78 362.907Z" fill="white"/>
<path d="M1214.78 366.995H1214.71C1214.19 367.756 1213.41 368.137 1212.36 368.137C1211.38 368.137 1210.62 367.802 1210.07 367.132C1209.53 366.462 1209.26 365.509 1209.26 364.274C1209.26 363.039 1209.53 362.08 1210.08 361.396C1210.63 360.713 1211.39 360.371 1212.36 360.371C1213.38 360.371 1214.16 360.74 1214.7 361.479H1214.79L1214.74 360.938L1214.71 360.412V357.363H1215.85V368H1214.93L1214.78 366.995ZM1212.51 367.187C1213.28 367.187 1213.84 366.977 1214.19 366.558C1214.54 366.134 1214.71 365.452 1214.71 364.514V364.274C1214.71 363.213 1214.54 362.456 1214.18 362.005C1213.83 361.549 1213.27 361.321 1212.49 361.321C1211.83 361.321 1211.32 361.581 1210.96 362.101C1210.61 362.616 1210.43 363.345 1210.43 364.288C1210.43 365.245 1210.61 365.967 1210.96 366.455C1211.31 366.943 1211.83 367.187 1212.51 367.187Z" fill="white"/>
<path d="M1224.73 364.247C1224.73 365.468 1224.42 366.423 1223.81 367.111C1223.19 367.795 1222.34 368.137 1221.26 368.137C1220.59 368.137 1219.99 367.979 1219.47 367.665C1218.95 367.351 1218.55 366.899 1218.27 366.312C1217.99 365.724 1217.84 365.035 1217.84 364.247C1217.84 363.026 1218.15 362.076 1218.76 361.396C1219.37 360.713 1220.22 360.371 1221.3 360.371C1222.35 360.371 1223.18 360.72 1223.8 361.417C1224.42 362.114 1224.73 363.058 1224.73 364.247ZM1219.02 364.247C1219.02 365.204 1219.21 365.933 1219.59 366.435C1219.98 366.936 1220.54 367.187 1221.28 367.187C1222.03 367.187 1222.59 366.938 1222.97 366.441C1223.36 365.94 1223.55 365.209 1223.55 364.247C1223.55 363.295 1223.36 362.572 1222.97 362.08C1222.59 361.583 1222.02 361.335 1221.27 361.335C1220.53 361.335 1219.97 361.579 1219.59 362.066C1219.21 362.554 1219.02 363.281 1219.02 364.247Z" fill="white"/>
<path d="M1236.27 368V363.126C1236.27 362.529 1236.15 362.082 1235.89 361.786C1235.64 361.485 1235.24 361.335 1234.7 361.335C1234 361.335 1233.47 361.538 1233.14 361.943C1232.8 362.349 1232.63 362.973 1232.63 363.816V368H1231.5V363.126C1231.5 362.529 1231.37 362.082 1231.11 361.786C1230.86 361.485 1230.46 361.335 1229.92 361.335C1229.21 361.335 1228.68 361.549 1228.35 361.978C1228.02 362.401 1227.86 363.099 1227.86 364.069V368H1226.72V360.508H1227.65L1227.83 361.533H1227.89C1228.1 361.169 1228.4 360.884 1228.79 360.679C1229.18 360.474 1229.62 360.371 1230.1 360.371C1231.27 360.371 1232.04 360.795 1232.4 361.643H1232.45C1232.68 361.251 1233 360.941 1233.42 360.713C1233.85 360.485 1234.33 360.371 1234.87 360.371C1235.72 360.371 1236.35 360.59 1236.77 361.027C1237.2 361.46 1237.41 362.155 1237.41 363.112V368H1236.27Z" fill="white"/>
<path d="M161.704 166.668C159.763 166.668 158.008 166.239 156.44 165.38C154.891 164.521 153.668 163.336 152.772 161.824C151.895 160.293 151.456 158.585 151.456 156.7C151.456 154.815 151.895 153.116 152.772 151.604C153.668 150.073 154.9 148.879 156.468 148.02C158.036 147.161 159.791 146.732 161.732 146.732C163.188 146.732 164.532 146.975 165.764 147.46C166.996 147.945 168.041 148.655 168.9 149.588L167.584 150.904C166.053 149.355 164.121 148.58 161.788 148.58C160.239 148.58 158.829 148.935 157.56 149.644C156.291 150.353 155.292 151.324 154.564 152.556C153.855 153.788 153.5 155.169 153.5 156.7C153.5 158.231 153.855 159.612 154.564 160.844C155.292 162.076 156.291 163.047 157.56 163.756C158.829 164.465 160.239 164.82 161.788 164.82C164.14 164.82 166.072 164.036 167.584 162.468L168.9 163.784C168.041 164.717 166.987 165.436 165.736 165.94C164.504 166.425 163.16 166.668 161.704 166.668Z" fill="white"/>
<path d="M179.261 166.64C177.842 166.64 176.563 166.323 175.425 165.688C174.286 165.035 173.39 164.139 172.737 163C172.083 161.861 171.757 160.573 171.757 159.136C171.757 157.699 172.083 156.411 172.737 155.272C173.39 154.133 174.286 153.247 175.425 152.612C176.563 151.977 177.842 151.66 179.261 151.66C180.679 151.66 181.958 151.977 183.097 152.612C184.235 153.247 185.122 154.133 185.757 155.272C186.41 156.411 186.737 157.699 186.737 159.136C186.737 160.573 186.41 161.861 185.757 163C185.122 164.139 184.235 165.035 183.097 165.688C181.958 166.323 180.679 166.64 179.261 166.64ZM179.261 164.876C180.306 164.876 181.239 164.643 182.061 164.176C182.901 163.691 183.554 163.009 184.021 162.132C184.487 161.255 184.721 160.256 184.721 159.136C184.721 158.016 184.487 157.017 184.021 156.14C183.554 155.263 182.901 154.591 182.061 154.124C181.239 153.639 180.306 153.396 179.261 153.396C178.215 153.396 177.273 153.639 176.433 154.124C175.611 154.591 174.958 155.263 174.473 156.14C174.006 157.017 173.773 158.016 173.773 159.136C173.773 160.256 174.006 161.255 174.473 162.132C174.958 163.009 175.611 163.691 176.433 164.176C177.273 164.643 178.215 164.876 179.261 164.876Z" fill="white"/>
<path d="M199.299 151.66C201.147 151.66 202.613 152.201 203.695 153.284C204.797 154.348 205.347 155.907 205.347 157.96V166.5H203.359V158.156C203.359 156.625 202.977 155.459 202.211 154.656C201.446 153.853 200.354 153.452 198.935 153.452C197.349 153.452 196.089 153.928 195.155 154.88C194.241 155.813 193.783 157.111 193.783 158.772V166.5H191.795V151.772H193.699V154.488C194.241 153.592 194.987 152.901 195.939 152.416C196.91 151.912 198.03 151.66 199.299 151.66Z" fill="white"/>
<path d="M219.501 165.604C219.127 165.94 218.661 166.201 218.101 166.388C217.559 166.556 216.99 166.64 216.393 166.64C215.011 166.64 213.947 166.267 213.201 165.52C212.454 164.773 212.081 163.719 212.081 162.356V153.452H209.449V151.772H212.081V148.552H214.069V151.772H218.549V153.452H214.069V162.244C214.069 163.121 214.283 163.793 214.713 164.26C215.161 164.708 215.795 164.932 216.617 164.932C217.027 164.932 217.419 164.867 217.793 164.736C218.185 164.605 218.521 164.419 218.801 164.176L219.501 165.604Z" fill="white"/>
<path d="M229.272 151.66C231.194 151.66 232.669 152.145 233.696 153.116C234.722 154.068 235.236 155.487 235.236 157.372V166.5H233.332V164.204C232.884 164.969 232.221 165.567 231.344 165.996C230.485 166.425 229.458 166.64 228.264 166.64C226.621 166.64 225.314 166.248 224.344 165.464C223.373 164.68 222.888 163.644 222.888 162.356C222.888 161.105 223.336 160.097 224.232 159.332C225.146 158.567 226.593 158.184 228.572 158.184H233.248V157.288C233.248 156.019 232.893 155.057 232.184 154.404C231.474 153.732 230.438 153.396 229.076 153.396C228.142 153.396 227.246 153.555 226.388 153.872C225.529 154.171 224.792 154.591 224.176 155.132L223.28 153.648C224.026 153.013 224.922 152.528 225.968 152.192C227.013 151.837 228.114 151.66 229.272 151.66ZM228.572 165.072C229.692 165.072 230.653 164.82 231.456 164.316C232.258 163.793 232.856 163.047 233.248 162.076V159.668H228.628C226.108 159.668 224.848 160.545 224.848 162.3C224.848 163.159 225.174 163.84 225.828 164.344C226.481 164.829 227.396 165.072 228.572 165.072Z" fill="white"/>
<path d="M247.794 166.64C246.338 166.64 245.031 166.323 243.874 165.688C242.735 165.053 241.839 164.167 241.186 163.028C240.533 161.871 240.206 160.573 240.206 159.136C240.206 157.699 240.533 156.411 241.186 155.272C241.839 154.133 242.735 153.247 243.874 152.612C245.031 151.977 246.338 151.66 247.794 151.66C249.063 151.66 250.193 151.912 251.182 152.416C252.19 152.901 252.983 153.62 253.562 154.572L252.078 155.58C251.593 154.852 250.977 154.311 250.23 153.956C249.483 153.583 248.671 153.396 247.794 153.396C246.73 153.396 245.769 153.639 244.91 154.124C244.07 154.591 243.407 155.263 242.922 156.14C242.455 157.017 242.222 158.016 242.222 159.136C242.222 160.275 242.455 161.283 242.922 162.16C243.407 163.019 244.07 163.691 244.91 164.176C245.769 164.643 246.73 164.876 247.794 164.876C248.671 164.876 249.483 164.699 250.23 164.344C250.977 163.989 251.593 163.448 252.078 162.72L253.562 163.728C252.983 164.68 252.19 165.408 251.182 165.912C250.174 166.397 249.045 166.64 247.794 166.64Z" fill="white"/>
<path d="M266.387 165.604C266.014 165.94 265.547 166.201 264.987 166.388C264.446 166.556 263.877 166.64 263.279 166.64C261.898 166.64 260.834 166.267 260.087 165.52C259.341 164.773 258.967 163.719 258.967 162.356V153.452H256.335V151.772H258.967V148.552H260.955V151.772H265.435V153.452H260.955V162.244C260.955 163.121 261.17 163.793 261.599 164.26C262.047 164.708 262.682 164.932 263.503 164.932C263.914 164.932 264.306 164.867 264.679 164.736C265.071 164.605 265.407 164.419 265.687 164.176L266.387 165.604Z" fill="white"/>
<path d="M287.651 166.668C285.112 166.668 283.133 165.94 281.715 164.484C280.296 163.028 279.586 160.909 279.586 158.128V146.9H281.659V158.044C281.659 160.321 282.172 162.02 283.198 163.14C284.225 164.26 285.709 164.82 287.651 164.82C289.611 164.82 291.104 164.26 292.13 163.14C293.157 162.02 293.671 160.321 293.671 158.044V146.9H295.686V158.128C295.686 160.909 294.977 163.028 293.559 164.484C292.159 165.94 290.189 166.668 287.651 166.668Z" fill="white"/>
<path d="M306.458 166.64C305.264 166.64 304.116 166.472 303.014 166.136C301.932 165.781 301.082 165.343 300.466 164.82L301.362 163.252C301.978 163.737 302.753 164.139 303.686 164.456C304.62 164.755 305.59 164.904 306.598 164.904C307.942 164.904 308.932 164.699 309.566 164.288C310.22 163.859 310.546 163.261 310.546 162.496C310.546 161.955 310.369 161.535 310.014 161.236C309.66 160.919 309.212 160.685 308.67 160.536C308.129 160.368 307.41 160.209 306.514 160.06C305.32 159.836 304.358 159.612 303.63 159.388C302.902 159.145 302.277 158.744 301.754 158.184C301.25 157.624 300.998 156.849 300.998 155.86C300.998 154.628 301.512 153.62 302.538 152.836C303.565 152.052 304.993 151.66 306.822 151.66C307.774 151.66 308.726 151.791 309.678 152.052C310.63 152.295 311.414 152.621 312.03 153.032L311.162 154.628C309.949 153.788 308.502 153.368 306.822 153.368C305.553 153.368 304.592 153.592 303.938 154.04C303.304 154.488 302.986 155.076 302.986 155.804C302.986 156.364 303.164 156.812 303.518 157.148C303.892 157.484 304.349 157.736 304.89 157.904C305.432 158.053 306.178 158.212 307.13 158.38C308.306 158.604 309.249 158.828 309.958 159.052C310.668 159.276 311.274 159.659 311.778 160.2C312.282 160.741 312.534 161.488 312.534 162.44C312.534 163.728 311.993 164.755 310.91 165.52C309.846 166.267 308.362 166.64 306.458 166.64Z" fill="white"/>
<path d="M161.836 244.5H160.416L154.563 235.513H154.505C154.583 236.568 154.622 237.535 154.622 238.414V244.5H153.472V233.792H154.878L160.716 242.742H160.774C160.765 242.61 160.743 242.188 160.708 241.475C160.674 240.757 160.662 240.245 160.672 239.937V233.792H161.836V244.5Z" fill="white"/>
<path d="M170.034 244.5L169.792 243.357H169.734C169.333 243.86 168.933 244.202 168.533 244.383C168.137 244.559 167.642 244.646 167.046 244.646C166.25 244.646 165.625 244.441 165.171 244.031C164.722 243.621 164.497 243.038 164.497 242.281C164.497 240.66 165.793 239.81 168.386 239.732L169.749 239.688V239.19C169.749 238.56 169.612 238.096 169.338 237.798C169.07 237.496 168.638 237.344 168.042 237.344C167.373 237.344 166.616 237.549 165.771 237.959L165.398 237.029C165.793 236.814 166.226 236.646 166.694 236.524C167.168 236.402 167.642 236.341 168.115 236.341C169.072 236.341 169.78 236.553 170.239 236.978C170.703 237.403 170.935 238.084 170.935 239.021V244.5H170.034ZM167.288 243.643C168.044 243.643 168.638 243.436 169.067 243.021C169.502 242.605 169.719 242.024 169.719 241.277V240.552L168.503 240.604C167.537 240.638 166.838 240.789 166.409 241.058C165.984 241.321 165.771 241.734 165.771 242.295C165.771 242.735 165.903 243.069 166.167 243.299C166.436 243.528 166.809 243.643 167.288 243.643Z" fill="white"/>
<path d="M184.179 244.5V239.278C184.179 238.638 184.042 238.16 183.769 237.842C183.496 237.52 183.071 237.359 182.495 237.359C181.738 237.359 181.179 237.576 180.817 238.011C180.456 238.445 180.275 239.114 180.275 240.018V244.5H179.06V239.278C179.06 238.638 178.923 238.16 178.649 237.842C178.376 237.52 177.949 237.359 177.368 237.359C176.606 237.359 176.047 237.588 175.69 238.047C175.339 238.501 175.163 239.249 175.163 240.289V244.5H173.947V236.473H174.936L175.134 237.571H175.192C175.422 237.181 175.744 236.875 176.159 236.656C176.579 236.436 177.048 236.326 177.565 236.326C178.82 236.326 179.641 236.78 180.026 237.688H180.085C180.324 237.269 180.671 236.937 181.125 236.692C181.579 236.448 182.097 236.326 182.678 236.326C183.586 236.326 184.265 236.561 184.714 237.029C185.168 237.493 185.395 238.238 185.395 239.263V244.5H184.179Z" fill="white"/>
<path d="M191.798 244.646C190.612 244.646 189.674 244.285 188.986 243.562C188.302 242.84 187.96 241.836 187.96 240.552C187.96 239.258 188.278 238.23 188.913 237.469C189.552 236.707 190.409 236.326 191.483 236.326C192.489 236.326 193.285 236.658 193.871 237.322C194.457 237.981 194.75 238.853 194.75 239.937V240.706H189.22C189.245 241.648 189.481 242.364 189.931 242.852C190.385 243.34 191.022 243.584 191.842 243.584C192.707 243.584 193.561 243.404 194.406 243.042V244.126C193.976 244.312 193.568 244.444 193.183 244.522C192.802 244.605 192.34 244.646 191.798 244.646ZM191.469 237.344C190.824 237.344 190.309 237.554 189.923 237.974C189.542 238.394 189.318 238.975 189.25 239.717H193.446C193.446 238.951 193.275 238.365 192.934 237.959C192.592 237.549 192.104 237.344 191.469 237.344Z" fill="white"/>
<path d="M153 256H603V258H153V256Z" fill="white"/>
<path d="M159.441 312H153.472V301.292H159.441V302.398H154.717V305.848H159.156V306.946H154.717V310.887H159.441V312Z" fill="white"/>
<path d="M172.371 312V306.778C172.371 306.138 172.234 305.66 171.96 305.342C171.687 305.02 171.262 304.859 170.686 304.859C169.929 304.859 169.37 305.076 169.009 305.511C168.647 305.945 168.467 306.614 168.467 307.518V312H167.251V306.778C167.251 306.138 167.114 305.66 166.841 305.342C166.567 305.02 166.14 304.859 165.559 304.859C164.797 304.859 164.238 305.088 163.882 305.547C163.53 306.001 163.354 306.749 163.354 307.789V312H162.139V303.973H163.127L163.325 305.071H163.384C163.613 304.681 163.936 304.375 164.351 304.156C164.771 303.936 165.239 303.826 165.757 303.826C167.012 303.826 167.832 304.28 168.218 305.188H168.276C168.516 304.769 168.862 304.437 169.316 304.192C169.771 303.948 170.288 303.826 170.869 303.826C171.777 303.826 172.456 304.061 172.905 304.529C173.359 304.993 173.586 305.738 173.586 306.763V312H172.371Z" fill="white"/>
<path d="M181.535 312L181.293 310.857H181.235C180.834 311.36 180.434 311.702 180.034 311.883C179.638 312.059 179.143 312.146 178.547 312.146C177.751 312.146 177.126 311.941 176.672 311.531C176.223 311.121 175.998 310.538 175.998 309.781C175.998 308.16 177.294 307.31 179.887 307.232L181.25 307.188V306.69C181.25 306.06 181.113 305.596 180.839 305.298C180.571 304.996 180.139 304.844 179.543 304.844C178.874 304.844 178.117 305.049 177.272 305.459L176.899 304.529C177.294 304.314 177.727 304.146 178.195 304.024C178.669 303.902 179.143 303.841 179.616 303.841C180.573 303.841 181.281 304.053 181.74 304.478C182.204 304.903 182.436 305.584 182.436 306.521V312H181.535ZM178.789 311.143C179.545 311.143 180.139 310.936 180.568 310.521C181.003 310.105 181.22 309.524 181.22 308.777V308.052L180.004 308.104C179.038 308.138 178.339 308.289 177.91 308.558C177.485 308.821 177.272 309.234 177.272 309.795C177.272 310.235 177.404 310.569 177.668 310.799C177.937 311.028 178.31 311.143 178.789 311.143Z" fill="white"/>
<path d="M186.664 312H185.448V303.973H186.664V312ZM185.346 301.797C185.346 301.519 185.414 301.316 185.551 301.189C185.688 301.058 185.858 300.992 186.063 300.992C186.259 300.992 186.427 301.058 186.569 301.189C186.71 301.321 186.781 301.524 186.781 301.797C186.781 302.071 186.71 302.276 186.569 302.413C186.427 302.544 186.259 302.61 186.063 302.61C185.858 302.61 185.688 302.544 185.551 302.413C185.414 302.276 185.346 302.071 185.346 301.797Z" fill="white"/>
<path d="M190.958 312H189.742V300.604H190.958V312Z" fill="white"/>
<path d="M153 323.5H603V325.5H153V323.5Z" fill="white"/>
<path d="M158.211 377.5L154.578 368.008H154.52C154.588 368.76 154.622 369.653 154.622 370.688V377.5H153.472V366.792H155.347L158.738 375.625H158.797L162.217 366.792H164.078V377.5H162.833V370.601C162.833 369.81 162.867 368.95 162.935 368.022H162.876L159.214 377.5H158.211Z" fill="white"/>
<path d="M170.73 377.646C169.543 377.646 168.606 377.285 167.917 376.562C167.234 375.84 166.892 374.836 166.892 373.552C166.892 372.258 167.209 371.23 167.844 370.469C168.484 369.707 169.341 369.326 170.415 369.326C171.421 369.326 172.217 369.658 172.803 370.322C173.389 370.981 173.682 371.853 173.682 372.937V373.706H168.152C168.176 374.648 168.413 375.364 168.862 375.852C169.316 376.34 169.954 376.584 170.774 376.584C171.638 376.584 172.493 376.404 173.337 376.042V377.126C172.908 377.312 172.5 377.444 172.114 377.522C171.733 377.605 171.272 377.646 170.73 377.646ZM170.4 370.344C169.756 370.344 169.241 370.554 168.855 370.974C168.474 371.394 168.25 371.975 168.181 372.717H172.378C172.378 371.951 172.207 371.365 171.865 370.959C171.523 370.549 171.035 370.344 170.4 370.344Z" fill="white"/>
<path d="M181.44 375.31C181.44 376.057 181.162 376.633 180.605 377.039C180.048 377.444 179.267 377.646 178.261 377.646C177.197 377.646 176.367 377.478 175.771 377.141V376.013C176.157 376.208 176.569 376.362 177.009 376.475C177.453 376.587 177.88 376.643 178.291 376.643C178.925 376.643 179.414 376.543 179.755 376.343C180.097 376.138 180.268 375.828 180.268 375.413C180.268 375.1 180.131 374.834 179.858 374.614C179.589 374.39 179.062 374.126 178.276 373.823C177.529 373.545 176.997 373.303 176.679 373.098C176.367 372.888 176.132 372.651 175.976 372.388C175.825 372.124 175.749 371.809 175.749 371.443C175.749 370.789 176.015 370.273 176.547 369.897C177.08 369.517 177.81 369.326 178.737 369.326C179.602 369.326 180.446 369.502 181.271 369.854L180.839 370.842C180.034 370.51 179.304 370.344 178.649 370.344C178.073 370.344 177.639 370.435 177.346 370.615C177.053 370.796 176.906 371.045 176.906 371.362C176.906 371.577 176.96 371.76 177.067 371.912C177.18 372.063 177.358 372.207 177.602 372.344C177.846 372.48 178.315 372.678 179.008 372.937C179.96 373.284 180.603 373.633 180.935 373.984C181.271 374.336 181.44 374.778 181.44 375.31Z" fill="white"/>
<path d="M189.103 375.31C189.103 376.057 188.825 376.633 188.268 377.039C187.711 377.444 186.93 377.646 185.924 377.646C184.86 377.646 184.03 377.478 183.434 377.141V376.013C183.82 376.208 184.232 376.362 184.672 376.475C185.116 376.587 185.543 376.643 185.954 376.643C186.588 376.643 187.077 376.543 187.418 376.343C187.76 376.138 187.931 375.828 187.931 375.413C187.931 375.1 187.794 374.834 187.521 374.614C187.252 374.39 186.725 374.126 185.939 373.823C185.192 373.545 184.66 373.303 184.342 373.098C184.03 372.888 183.795 372.651 183.639 372.388C183.488 372.124 183.412 371.809 183.412 371.443C183.412 370.789 183.678 370.273 184.21 369.897C184.743 369.517 185.473 369.326 186.4 369.326C187.265 369.326 188.109 369.502 188.935 369.854L188.502 370.842C187.697 370.51 186.967 370.344 186.312 370.344C185.736 370.344 185.302 370.435 185.009 370.615C184.716 370.796 184.569 371.045 184.569 371.362C184.569 371.577 184.623 371.76 184.73 371.912C184.843 372.063 185.021 372.207 185.265 372.344C185.509 372.48 185.978 372.678 186.671 372.937C187.624 373.284 188.266 373.633 188.598 373.984C188.935 374.336 189.103 374.778 189.103 375.31Z" fill="white"/>
<path d="M196.524 377.5L196.283 376.357H196.224C195.824 376.86 195.423 377.202 195.023 377.383C194.627 377.559 194.132 377.646 193.536 377.646C192.74 377.646 192.115 377.441 191.661 377.031C191.212 376.621 190.987 376.038 190.987 375.281C190.987 373.66 192.284 372.81 194.876 372.732L196.239 372.688V372.19C196.239 371.56 196.102 371.096 195.829 370.798C195.56 370.496 195.128 370.344 194.532 370.344C193.863 370.344 193.106 370.549 192.262 370.959L191.888 370.029C192.284 369.814 192.716 369.646 193.185 369.524C193.658 369.402 194.132 369.341 194.605 369.341C195.562 369.341 196.271 369.553 196.729 369.978C197.193 370.403 197.425 371.084 197.425 372.021V377.5H196.524ZM193.778 376.643C194.535 376.643 195.128 376.436 195.558 376.021C195.992 375.605 196.209 375.024 196.209 374.277V373.552L194.994 373.604C194.027 373.638 193.329 373.789 192.899 374.058C192.474 374.321 192.262 374.734 192.262 375.295C192.262 375.735 192.394 376.069 192.657 376.299C192.926 376.528 193.299 376.643 193.778 376.643Z" fill="white"/>
<path d="M207.007 369.473V370.242L205.521 370.417C205.657 370.588 205.779 370.813 205.887 371.091C205.994 371.365 206.048 371.675 206.048 372.021C206.048 372.808 205.779 373.435 205.242 373.904C204.705 374.373 203.968 374.607 203.03 374.607C202.791 374.607 202.566 374.587 202.356 374.548C201.839 374.822 201.58 375.166 201.58 375.581C201.58 375.801 201.67 375.964 201.851 376.072C202.032 376.174 202.342 376.226 202.781 376.226H204.202C205.071 376.226 205.738 376.409 206.202 376.775C206.67 377.141 206.905 377.673 206.905 378.372C206.905 379.26 206.548 379.937 205.835 380.4C205.123 380.869 204.083 381.104 202.715 381.104C201.666 381.104 200.855 380.908 200.284 380.518C199.717 380.127 199.434 379.575 199.434 378.862C199.434 378.374 199.59 377.952 199.903 377.595C200.215 377.239 200.655 376.997 201.221 376.87C201.016 376.777 200.843 376.633 200.701 376.438C200.564 376.243 200.496 376.016 200.496 375.757C200.496 375.464 200.574 375.208 200.73 374.988C200.887 374.768 201.133 374.556 201.47 374.351C201.055 374.18 200.716 373.889 200.452 373.479C200.193 373.069 200.064 372.6 200.064 372.073C200.064 371.194 200.328 370.518 200.855 370.044C201.382 369.565 202.129 369.326 203.096 369.326C203.516 369.326 203.895 369.375 204.231 369.473H207.007ZM200.606 378.848C200.606 379.282 200.789 379.612 201.155 379.836C201.521 380.061 202.046 380.173 202.73 380.173C203.75 380.173 204.505 380.02 204.993 379.712C205.486 379.409 205.733 378.997 205.733 378.474C205.733 378.04 205.599 377.737 205.33 377.566C205.062 377.4 204.556 377.317 203.814 377.317H202.356C201.805 377.317 201.375 377.449 201.067 377.712C200.76 377.976 200.606 378.354 200.606 378.848ZM201.265 372.043C201.265 372.605 201.424 373.03 201.741 373.318C202.059 373.606 202.5 373.75 203.067 373.75C204.253 373.75 204.847 373.174 204.847 372.021C204.847 370.815 204.246 370.212 203.045 370.212C202.474 370.212 202.034 370.366 201.727 370.674C201.419 370.981 201.265 371.438 201.265 372.043Z" fill="white"/>
<path d="M212.546 377.646C211.36 377.646 210.422 377.285 209.734 376.562C209.05 375.84 208.708 374.836 208.708 373.552C208.708 372.258 209.026 371.23 209.661 370.469C210.3 369.707 211.157 369.326 212.231 369.326C213.237 369.326 214.033 369.658 214.619 370.322C215.205 370.981 215.498 371.853 215.498 372.937V373.706H209.968C209.993 374.648 210.229 375.364 210.679 375.852C211.133 376.34 211.77 376.584 212.59 376.584C213.455 376.584 214.309 376.404 215.154 376.042V377.126C214.724 377.312 214.316 377.444 213.931 377.522C213.55 377.605 213.088 377.646 212.546 377.646ZM212.217 370.344C211.572 370.344 211.057 370.554 210.671 370.974C210.291 371.394 210.066 371.975 209.998 372.717H214.194C214.194 371.951 214.023 371.365 213.682 370.959C213.34 370.549 212.852 370.344 212.217 370.344Z" fill="white"/>
<path d="M153 548H603V550H153V548Z" fill="white"/>
<path d="M433 507.5C433 493.693 444.193 482.5 458 482.5H578C591.807 482.5 603 493.693 603 507.5C603 521.307 591.807 532.5 578 532.5H458C444.193 532.5 433 521.307 433 507.5Z" fill="white"/>
<path d="M485.057 500.751C483.88 500.751 482.95 501.145 482.267 501.931C481.588 502.712 481.249 503.784 481.249 505.146C481.249 506.547 481.576 507.631 482.23 508.398C482.889 509.16 483.827 509.541 485.042 509.541C485.79 509.541 486.642 509.406 487.599 509.138V510.229C486.856 510.507 485.941 510.646 484.852 510.646C483.275 510.646 482.057 510.168 481.197 509.211C480.343 508.254 479.916 506.894 479.916 505.131C479.916 504.028 480.121 503.061 480.531 502.231C480.946 501.401 481.542 500.761 482.318 500.312C483.099 499.863 484.017 499.638 485.072 499.638C486.195 499.638 487.176 499.843 488.016 500.253L487.489 501.323C486.678 500.942 485.868 500.751 485.057 500.751Z" fill="white"/>
<path d="M496.868 506.479C496.868 507.788 496.539 508.811 495.879 509.548C495.22 510.28 494.31 510.646 493.147 510.646C492.43 510.646 491.792 510.478 491.236 510.141C490.679 509.804 490.25 509.321 489.947 508.691C489.644 508.061 489.493 507.324 489.493 506.479C489.493 505.17 489.82 504.152 490.474 503.425C491.128 502.692 492.037 502.326 493.199 502.326C494.322 502.326 495.213 502.7 495.872 503.447C496.536 504.194 496.868 505.205 496.868 506.479ZM490.752 506.479C490.752 507.504 490.958 508.286 491.368 508.823C491.778 509.36 492.381 509.628 493.177 509.628C493.973 509.628 494.576 509.362 494.986 508.83C495.401 508.293 495.608 507.509 495.608 506.479C495.608 505.458 495.401 504.685 494.986 504.157C494.576 503.625 493.968 503.359 493.162 503.359C492.366 503.359 491.766 503.62 491.36 504.143C490.955 504.665 490.752 505.444 490.752 506.479Z" fill="white"/>
<path d="M504.688 510.5V505.307C504.688 504.653 504.539 504.165 504.241 503.842C503.943 503.52 503.477 503.359 502.842 503.359C502.002 503.359 501.387 503.586 500.996 504.04C500.605 504.494 500.41 505.244 500.41 506.289V510.5H499.194V502.473H500.183L500.381 503.571H500.439C500.688 503.176 501.038 502.871 501.487 502.656C501.936 502.436 502.437 502.326 502.988 502.326C503.955 502.326 504.683 502.561 505.171 503.029C505.659 503.493 505.903 504.238 505.903 505.263V510.5H504.688Z" fill="white"/>
<path d="M511.188 509.643C511.403 509.643 511.611 509.628 511.811 509.599C512.011 509.565 512.17 509.531 512.287 509.497V510.427C512.155 510.49 511.96 510.542 511.701 510.581C511.447 510.625 511.218 510.646 511.013 510.646C509.46 510.646 508.684 509.829 508.684 508.193V503.417H507.534V502.832L508.684 502.326L509.196 500.612H509.899V502.473H512.229V503.417H509.899V508.142C509.899 508.625 510.014 508.996 510.244 509.255C510.473 509.514 510.788 509.643 511.188 509.643Z" fill="white"/>
<path d="M519.022 510.5L518.781 509.357H518.722C518.322 509.86 517.921 510.202 517.521 510.383C517.125 510.559 516.63 510.646 516.034 510.646C515.238 510.646 514.613 510.441 514.159 510.031C513.71 509.621 513.485 509.038 513.485 508.281C513.485 506.66 514.782 505.81 517.375 505.732L518.737 505.688V505.19C518.737 504.56 518.6 504.096 518.327 503.798C518.058 503.496 517.626 503.344 517.03 503.344C516.361 503.344 515.604 503.549 514.76 503.959L514.386 503.029C514.782 502.814 515.214 502.646 515.683 502.524C516.156 502.402 516.63 502.341 517.104 502.341C518.061 502.341 518.769 502.553 519.228 502.978C519.691 503.403 519.923 504.084 519.923 505.021V510.5H519.022ZM516.276 509.643C517.033 509.643 517.626 509.436 518.056 509.021C518.49 508.605 518.708 508.024 518.708 507.277V506.552L517.492 506.604C516.525 506.638 515.827 506.789 515.397 507.058C514.972 507.321 514.76 507.734 514.76 508.295C514.76 508.735 514.892 509.069 515.155 509.299C515.424 509.528 515.797 509.643 516.276 509.643Z" fill="white"/>
<path d="M525.831 510.646C524.669 510.646 523.768 510.29 523.128 509.577C522.494 508.859 522.176 507.846 522.176 506.538C522.176 505.195 522.499 504.157 523.143 503.425C523.792 502.692 524.715 502.326 525.912 502.326C526.297 502.326 526.683 502.368 527.069 502.451C527.455 502.534 527.757 502.631 527.977 502.744L527.604 503.776C527.335 503.669 527.042 503.581 526.725 503.513C526.407 503.439 526.126 503.403 525.882 503.403C524.251 503.403 523.436 504.443 523.436 506.523C523.436 507.509 523.634 508.266 524.029 508.793C524.43 509.321 525.021 509.584 525.802 509.584C526.471 509.584 527.157 509.44 527.86 509.152V510.229C527.323 510.507 526.646 510.646 525.831 510.646Z" fill="white"/>
<path d="M532.552 509.643C532.767 509.643 532.974 509.628 533.174 509.599C533.375 509.565 533.533 509.531 533.65 509.497V510.427C533.519 510.49 533.323 510.542 533.064 510.581C532.811 510.625 532.581 510.646 532.376 510.646C530.823 510.646 530.047 509.829 530.047 508.193V503.417H528.897V502.832L530.047 502.326L530.56 500.612H531.263V502.473H533.592V503.417H531.263V508.142C531.263 508.625 531.377 508.996 531.607 509.255C531.836 509.514 532.151 509.643 532.552 509.643Z" fill="white"/>
<path d="M547.802 499.792V506.721C547.802 507.941 547.434 508.901 546.696 509.599C545.959 510.297 544.946 510.646 543.657 510.646C542.368 510.646 541.369 510.295 540.661 509.592C539.958 508.889 539.606 507.922 539.606 506.691V499.792H540.852V506.779C540.852 507.673 541.096 508.359 541.584 508.837C542.072 509.316 542.79 509.555 543.737 509.555C544.641 509.555 545.336 509.316 545.825 508.837C546.313 508.354 546.557 507.663 546.557 506.765V499.792H547.802Z" fill="white"/>
<path d="M555.827 508.31C555.827 509.057 555.548 509.633 554.992 510.039C554.435 510.444 553.654 510.646 552.648 510.646C551.583 510.646 550.753 510.478 550.158 510.141V509.013C550.543 509.208 550.956 509.362 551.396 509.475C551.84 509.587 552.267 509.643 552.677 509.643C553.312 509.643 553.8 509.543 554.142 509.343C554.484 509.138 554.655 508.828 554.655 508.413C554.655 508.1 554.518 507.834 554.245 507.614C553.976 507.39 553.449 507.126 552.663 506.823C551.916 506.545 551.383 506.303 551.066 506.098C550.753 505.888 550.519 505.651 550.363 505.388C550.211 505.124 550.136 504.809 550.136 504.443C550.136 503.789 550.402 503.273 550.934 502.897C551.466 502.517 552.196 502.326 553.124 502.326C553.988 502.326 554.833 502.502 555.658 502.854L555.226 503.842C554.42 503.51 553.69 503.344 553.036 503.344C552.46 503.344 552.025 503.435 551.732 503.615C551.439 503.796 551.293 504.045 551.293 504.362C551.293 504.577 551.347 504.76 551.454 504.912C551.566 505.063 551.745 505.207 551.989 505.344C552.233 505.48 552.702 505.678 553.395 505.937C554.347 506.284 554.989 506.633 555.321 506.984C555.658 507.336 555.827 507.778 555.827 508.31Z" fill="white"/>
</svg>
